# xmcd
#
# Track frame offsets:
# 150
# 14792
# 31802
# 48685
# 65630
# 77447
# 93395
# 108507
# 120022
# 131840
# 150037
# 158370
# 173212
# 190287
# 207087
# 223950
# 234032
# 250007
# 265242
# 277000
# 288892
# 307020
#
# Disc length: 4202 seconds
#
#
# Revision: 0
# Processed by: cddbd v1.5.2PL0 Copyright (c) Steve Scherf et al.
# Submitted via: FreeRIP 2.951 
#
DISCID=29106816
DTITLE=Ozéias de Paula - O Amor é Tudo
DYEAR=1900
DGENRE=Gospel
TTITLE0=O Amor é Tudo - Voz
TTITLE1=Oh Meu Deus - Voz
TTITLE2=Deus - Voz
TTITLE3=O Rei Está Voltando - Voz
TTITLE4=Vinte Séculos - Voz
TTITLE5=Amo - Voz
TTITLE6=Quem és Tu - Voz
TTITLE7=Jesus é Meu Tesouro - Voz
TTITLE8=Quão Grande és Tu - Voz
TTITLE9=A Família de Deus - Voz
TTITLE10=Me Dê Tua Mão - Voz
TTITLE11=O Amor é Tudo - PB
TTITLE12=Oh Meu Deus - PB
TTITLE13=Deus - PB
TTITLE14=O Rei Está Voltando
TTITLE15=Vinte Séculos - PB
TTITLE16=Amo - PB
TTITLE17=Quem és Tu - PB
TTITLE18=Jesus é Meu Tesouro - PB
TTITLE19=Quão grande és Tu - PB
TTITLE20=A Família de Deus - PB
TTITLE21=Me Dê Tua Mão - PB
EXTD=
EXTT0=
EXTT1=
EXTT2=
EXTT3=
EXTT4=
EXTT5=
EXTT6=
EXTT7=
EXTT8=
EXTT9=
EXTT10=
EXTT11=
EXTT12=
EXTT13=
EXTT14=
EXTT15=
EXTT16=
EXTT17=
EXTT18=
EXTT19=
EXTT20=
EXTT21=
PLAYORDER=
